<svg id="Smooth" enable-background="new 0 0 128 128" height="512" viewBox="0 0 128 128" width="512" xmlns="http://www.w3.org/2000/svg" xmlns:xlink="http://www.w3.org/1999/xlink"><linearGradient id="lg1"><stop offset="0" stop-color="#dc464e"/><stop offset="1" stop-color="#c72e37"/></linearGradient><linearGradient id="SVGID_1_" gradientUnits="userSpaceOnUse" x1="-64.12" x2="-11.62" xlink:href="#lg1" y1="85.292" y2="88.792"/><linearGradient id="SVGID_2_" gradientUnits="userSpaceOnUse" x1="61.625" x2="62.97" xlink:href="#lg1" y1="1.407" y2="-19.782"/><linearGradient id="lg2"><stop offset="0" stop-color="#58595b"/><stop offset="1" stop-color="#414042"/></linearGradient><linearGradient id="SVGID_3_" gradientUnits="userSpaceOnUse" x1="2" x2="110" xlink:href="#lg2" y1="32.5" y2="32.5"/><linearGradient id="lg3"><stop offset=".1197" stop-color="#9ec8f0"/><stop offset="1" stop-color="#65b3e1"/></linearGradient><linearGradient id="SVGID_4_" gradientUnits="userSpaceOnUse" x1="-8.298" x2="-74.631" xlink:href="#lg3" y1="92.591" y2="99.591"/><linearGradient id="lg4"><stop offset="0" stop-color="#f0f1f1"/><stop offset="1" stop-color="#e5e6e7"/></linearGradient><linearGradient id="SVGID_5_" gradientUnits="userSpaceOnUse" x1="12" x2="30" xlink:href="#lg4" y1="89.5" y2="89.5"/><linearGradient id="SVGID_6_" gradientUnits="userSpaceOnUse" x1="-7.527" x2="-73.86" xlink:href="#lg3" y1="99.897" y2="106.897"/><linearGradient id="SVGID_7_" gradientUnits="userSpaceOnUse" x1="82" x2="100" xlink:href="#lg4" y1="89.5" y2="89.5"/><linearGradient id="lg5"><stop offset="0" stop-color="#92634d"/><stop offset="1" stop-color="#92634d"/></linearGradient><linearGradient id="SVGID_8_" gradientUnits="userSpaceOnUse" x1="4.988" x2="33.602" xlink:href="#lg5" y1="57.899" y2="78.84"/><linearGradient id="SVGID_9_" gradientUnits="userSpaceOnUse" x1="64.814" x2="61.52" y1="21.423" y2="49.292"><stop offset="0" stop-color="#d59a61"/><stop offset="1" stop-color="#c07e51"/></linearGradient><linearGradient id="SVGID_10_" gradientUnits="userSpaceOnUse" x1="22.054" x2="40.962" xlink:href="#lg5" y1="71.156" y2="84.994"/><linearGradient id="SVGID_11_" gradientUnits="userSpaceOnUse" x1="4.173" x2="33.04" xlink:href="#lg5" y1="58.071" y2="79.197"/><linearGradient id="SVGID_12_" gradientUnits="userSpaceOnUse" x1="68.902" x2="124.777" xlink:href="#lg3" y1="40.126" y2="56.501"/><linearGradient id="SVGID_13_" gradientUnits="userSpaceOnUse" x1="36" x2="22.417" xlink:href="#lg4" y1="39.5" y2="39.5"/><linearGradient id="SVGID_15_" gradientUnits="userSpaceOnUse" x1="36" x2="22.417" xlink:href="#lg4" y1="26" y2="26"/><linearGradient id="SVGID_17_" gradientUnits="userSpaceOnUse" x1="36" x2="22.417" xlink:href="#lg4" y1="34" y2="34"/><linearGradient id="SVGID_18_" gradientUnits="userSpaceOnUse" x1="64" x2="64" y1="28.667" y2="208.982"><stop offset="0" stop-color="#a5af46"/><stop offset="1" stop-color="#9ba628"/></linearGradient><linearGradient id="SVGID_19_" gradientUnits="userSpaceOnUse" x1="126.374" x2="103.39" xlink:href="#lg2" y1="81.295" y2="79.876"/><g><path d="m104 75v43h19v-29z" fill="url(#SVGID_1_)"/><g><g><path d="m91 33-35-24-35 24-13 29v56h48 48v-56z" fill="url(#SVGID_2_)"/><path d="m56 9 35 24.006 13 29c2 1.885 6 1.016 6-2l-14-31-37-26.006c-1.969-1.343-4.219-1.325-6 0l-37 26-14 31c0 3.016 4 3.885 6 2l13-29z" fill="url(#SVGID_3_)"/><g><path d="m27 100h-12c-1.105 0-2-.895-2-2v-17c0-1.105.895-2 2-2h12c1.105 0 2 .895 2 2v17c0 1.104-.895 2-2 2z" fill="url(#SVGID_4_)"/><path d="m27 78h-12c-1.654 0-3 1.346-3 3v17c0 1.654 1.346 3 3 3h12c1.654 0 3-1.346 3-3v-17c0-1.655-1.346-3-3-3zm1 3v4h-6v-5h5c.552 0 1 .448 1 1zm-6 6h6v5h-6zm-2 5h-6v-5h6zm-5-12h5v5h-6v-4c0-.552.448-1 1-1zm-1 18v-4h6v5h-5c-.552 0-1-.449-1-1zm13 1h-5v-5h6v4c0 .551-.448 1-1 1z" fill="url(#SVGID_5_)"/></g><g><path d="m97 100h-12c-1.105 0-2-.895-2-2v-17c0-1.105.895-2 2-2h12c1.105 0 2 .895 2 2v17c0 1.104-.895 2-2 2z" fill="url(#SVGID_6_)"/><path d="m97 78h-12c-1.654 0-3 1.346-3 3v17c0 1.654 1.346 3 3 3h12c1.654 0 3-1.346 3-3v-17c0-1.655-1.346-3-3-3zm1 3v4h-6v-5h5c.552 0 1 .448 1 1zm-6 6h6v5h-6zm-2 5h-6v-5h6zm-5-12h5v5h-6v-4c0-.552.448-1 1-1zm-1 18v-4h6v5h-5c-.552 0-1-.449-1-1zm13 1h-5v-5h6v4c0 .551-.448 1-1 1z" fill="url(#SVGID_7_)"/></g><g><path d="m78 118h-44v-43c0-2.761 2.239-5 5-5h34c2.761 0 5 2.239 5 5z" fill="url(#SVGID_8_)"/><path d="m38 74h36v44h-36z" fill="url(#SVGID_9_)"/><path d="m41 118 33-41v-3h-3l-33 41v3z" fill="url(#SVGID_10_)"/><path d="m71 118-33-41v-3h3l33 41v3z" fill="url(#SVGID_11_)"/></g><g><path d="m56 15-16 11v27h16 16v-27z" fill="url(#SVGID_12_)"/><g><g><path d="m72 54c-.228 0-.457-.077-.645-.235l-32-27c-.422-.356-.476-.987-.119-1.409.356-.422.986-.477 1.409-.12l32 27c.422.356.476.987.119 1.409-.198.234-.48.355-.764.355z" fill="url(#SVGID_13_)"/></g><g><path d="m40 54c-.285 0-.567-.121-.765-.355-.356-.422-.303-1.053.119-1.409l32-27c.423-.356 1.053-.303 1.409.12.356.422.303 1.053-.119 1.409l-32 27c-.187.158-.416.235-.644.235z" fill="url(#SVGID_13_)"/></g><g><path d="m72 27h-32c-.552 0-1-.447-1-1s.448-1 1-1h32c.552 0 1 .447 1 1s-.448 1-1 1z" fill="url(#SVGID_15_)"/></g><g><path d="m72 27h-32c-.552 0-1-.447-1-1s.448-1 1-1h32c.552 0 1 .447 1 1s-.448 1-1 1z" fill="url(#SVGID_15_)"/></g><g><path d="m72 54h-32c-.552 0-1-.447-1-1v-27c0-.329.162-.638.434-.824l16-11c.341-.234.792-.234 1.133 0l16 11c.271.186.433.495.433.824v27c0 .553-.448 1-1 1zm-31-2h30v-25.474l-15-10.312-15 10.312z" fill="url(#SVGID_17_)"/></g></g></g></g><path d="m124 125h-120c-1.105 0-2-.895-2-2v-3c0-1.105.895-2 2-2h120c1.105 0 2 .895 2 2v3c0 1.105-.895 2-2 2z" fill="url(#SVGID_18_)"/></g><path d="m123 91-19-13v-8l20 14c3.437 1.604 2 7-1 7z" fill="url(#SVGID_19_)"/></g></svg>