<svg height="512" viewBox="0 0 58 58" width="512" xmlns="http://www.w3.org/2000/svg"><g id="Page-1" fill="none" fill-rule="evenodd"><g id="024---Log-Cabin" fill-rule="nonzero" transform="translate(-1 -1)"><path id="Shape" d="m53 21v35h-46v-36l23-14z" fill="#a56a43"/><g fill="#805333"><path id="Rectangle-path" d="m18 14h24v2h-24z"/><path id="Rectangle-path" d="m12 19h36v2h-36z"/><path id="Shape" d="m15 26h-7.29c-.55228475 0-1-.4477153-1-1s.44771525-1 1-1h7.29c.5522847 0 1 .4477153 1 1s-.4477153 1-1 1z"/><path id="Shape" d="m21 26h-2c-.5522847 0-1-.4477153-1-1s.4477153-1 1-1h2c.5522847 0 1 .4477153 1 1s-.4477153 1-1 1z"/><path id="Shape" d="m52.29 26h-18.29c-.5522847 0-1-.4477153-1-1s.4477153-1 1-1h18.29c.5522847 0 1 .4477153 1 1s-.4477153 1-1 1z"/><path id="Shape" d="m34 32h-5c-.5522847 0-1-.4477153-1-1s.4477153-1 1-1h5c.5522847 0 1 .4477153 1 1s-.4477153 1-1 1z"/><path id="Shape" d="m33 44h-4c-.5522847 0-1-.4477153-1-1s.4477153-1 1-1h4c.5522847 0 1 .4477153 1 1s-.4477153 1-1 1z"/><path id="Shape" d="m23 49c0 .5522847-.4477153 1-1 1h-15v-2h15c.5522847 0 1 .4477153 1 1z"/><path id="Shape" d="m33 50h-6c-.5522847 0-1-.4477153-1-1s.4477153-1 1-1h6c.5522847 0 1 .4477153 1 1s-.4477153 1-1 1z"/><path id="Shape" d="m13 43c0 .5522847-.4477153 1-1 1h-5v-2h5c.5522847 0 1 .4477153 1 1z"/><path id="Shape" d="m29 38h-4c-.5522847 0-1-.4477153-1-1s.4477153-1 1-1h4c.5522847 0 1 .4477153 1 1s-.4477153 1-1 1z"/><path id="Shape" d="m13 31c0 .5522847-.4477153 1-1 1h-5v-2h5c.5522847 0 1 .4477153 1 1z"/><path id="Shape" d="m53 30v2h-4c-.5522847 0-1-.4477153-1-1s.4477153-1 1-1z"/><path id="Shape" d="m53 42v2h-4c-.5522847 0-1-.4477153-1-1s.4477153-1 1-1z"/></g><circle id="Oval" cx="53" cy="52" fill="#cf976a" r="3"/><circle id="Oval" cx="53" cy="46" fill="#cb8252" r="3"/><circle id="Oval" cx="53" cy="40" fill="#cf976a" r="3"/><circle id="Oval" cx="53" cy="34" fill="#cb8252" r="3"/><path id="Shape" d="m52.39 25.06h-.01c-1.3396394.2744212-2.3268374 1.4160689-2.4050187 2.7812898-.0781812 1.365221.7722345 2.6121021 2.0717886 3.0376603 1.299554.4255582 2.7227793-.0767855 3.4672711-1.2238133.7444917-1.1470277.6237955-2.6514718-.294041-3.6651368z" fill="#cf976a"/><circle id="Oval" cx="7" cy="52" fill="#cf976a" r="3"/><circle id="Oval" cx="7" cy="46" fill="#cb8252" r="3"/><circle id="Oval" cx="7" cy="40" fill="#cf976a" r="3"/><circle id="Oval" cx="7" cy="34" fill="#cb8252" r="3"/><path id="Shape" d="m7.61 25.06h.01c1.33963935.2744212 2.32683745 1.4160689 2.4050187 2.7812898.0781812 1.365221-.77223448 2.6121021-2.07178855 3.0376603-1.29955408.4255582-2.72277937-.0767855-3.46727111-1.2238133-.74449175-1.1470277-.62379552-2.6514718.29404096-3.6651368z" fill="#cf976a"/><path id="Shape" d="m55 26c-.8012461.0006128-1.5840311-.2405658-2.246-.692l-22.754-15.471-22.751 15.471c-1.82695795 1.2426406-4.31535925.7689579-5.55799991-1.0580001-1.24264067-1.8269579-.76895798-4.3153592 1.05799991-5.5579999l25-17c1.3577817-.92374781 3.1422183-.92374781 4.5 0l25 17c1.4522281.9872375 2.090753 2.8061855 1.5742518 4.4845272s-2.0672324 2.8235572-3.8232518 2.8234728z" fill="#cb8252"/><path id="Shape" d="m45 31v24h-12v-24c0-.5522847.4477153-1 1-1h10c.5522847 0 1 .4477153 1 1z" fill="#603e26"/><path id="Shape" d="m45 43v2h-3c-.5522847 0-1-.4477153-1-1s.4477153-1 1-1z" fill="#cb8252"/><rect id="Rectangle-path" fill="#2c3e50" height="4" rx="1" width="4" x="37" y="35"/><rect id="Rectangle-path" fill="#2c3e50" height="12" rx="1" width="10" x="15" y="31"/><path id="Shape" d="m25 36h-4v-5h-2v5h-4v2h4v5h2v-5h4z" fill="#603e26"/><rect id="Rectangle-path" fill="#4fba6f" height="4" rx="1" width="58" x="1" y="55"/></g></g></svg>