<svg id="Layer_1" height="512" viewBox="0 0 256 256" width="512" xmlns="http://www.w3.org/2000/svg"><g><g><g><path d="m103.408 66.355h86.546c6.63 0 10.841-7.1 7.66-12.918l-9.566-17.497c-.746-1.365-1.844-2.506-3.179-3.305l-21.326-12.754c-2.006-1.199-4.408-1.545-6.67-.959l-13.365 3.463c-1.539.399-3.158.37-4.682-.084l-9.928-2.957c-2.804-.835-5.84-.21-8.086 1.664l-5.696 4.754c-1.737 1.449-3.968 2.168-6.225 2.005l-16.109-1.167c-2.171-.157-4.322.502-6.032 1.849l-14.586 11.486c-3.164 2.492-4.213 6.825-2.539 10.488l4.952 10.832c1.42 3.107 4.523 5.1 7.94 5.1z" fill="#58595b"/></g></g><g><g><g><path d="m197.614 53.438-9.566-17.497c-.746-1.365-1.844-2.506-3.179-3.305l-21.326-12.754c-2.006-1.199-4.408-1.545-6.67-.958l-.341.088c.698.206 1.376.49 2.012.87l21.326 12.754c1.335.799 2.433 1.939 3.179 3.305l9.566 17.497c3.181 5.818-1.03 12.918-7.66 12.918h5c6.63-.001 10.84-7.101 7.659-12.918z" fill="#414042"/></g></g></g><g><g><path d="m152.554 100.578-23.592-47.473c-1-2.012-2.711-3.582-4.801-4.406l-7.494-2.954c-1.48-.583-3.086-.767-4.659-.534l-21.441 3.176c-2.044.303-4.13-.101-5.913-1.144l-14.934-8.731c-2.809-1.643-6.283-1.656-9.105-.035l-12.352 7.097c-1.639.942-2.944 2.372-3.731 4.091l-9.918 21.652c-.466 1.017-1.115 1.939-1.916 2.719l-15.667 15.275c-1.974 1.924-2.966 4.641-2.698 7.384l3.269 33.413c.144 1.475.648 2.893 1.466 4.129l13.388 20.216c1.547 2.336 4.085 3.826 6.878 4.039l63.38 4.838c2.943.225 5.811-.995 7.69-3.271l41.018-49.66c2.284-2.763 2.727-6.611 1.132-9.821z" fill="#939598"/></g></g><g><g><path d="m152.554 100.578-23.592-47.473c-.98-1.971-2.644-3.514-4.677-4.35l23.269 46.823c1.595 3.21 1.152 7.058-1.13 9.822l-41.018 49.66c-1.879 2.275-4.748 3.495-7.69 3.271l-63.38-4.838c-1.058-.081-2.08-.347-3.025-.771l1.147 1.731c1.547 2.336 4.085 3.826 6.878 4.039l63.38 4.838c2.943.225 5.811-.995 7.69-3.271l41.018-49.66c2.282-2.763 2.725-6.611 1.13-9.821z" fill="#808285"/></g></g><g><g><path d="m117.697 108.094-4.22-11.941c-1.46-4.131-.34-8.734 2.855-11.732l11.402-10.701c1.191-1.118 2.119-2.486 2.718-4.006l5.844-14.839c1.134-2.88 3.425-5.152 6.314-6.262l9.52-3.659c2.935-1.128 6.212-.951 9.008.485l3.085 1.585c3.245 1.667 7.104 1.624 10.311-.115l3.369-1.827c2.266-1.229 4.89-1.626 7.417-1.124l14.121 2.807c1.942.386 3.745 1.287 5.219 2.609l23.968 21.488c1.803 1.617 3.025 3.781 3.477 6.16l7.823 41.145c.315 1.658.246 3.367-.202 4.994l-10.272 37.312c-.677 2.46-.482 5.079.553 7.411l14.814 33.381c.388.875.661 1.797.812 2.743l3.275 20.566c1.068 6.708-4.114 12.781-10.906 12.781h-50.596-57.507c-6.079 0-11.016-4.913-11.044-10.993l-.529-114.639c-.004-1.236-.217-2.463-.629-3.629z" fill="#808285"/></g></g><g><g><path d="m122.853 88.531c-.533 0-1.065-.212-1.459-.631-.756-.805-.716-2.071.09-2.827l8.988-8.436c1.612-1.513 2.892-3.4 3.702-5.457l5.844-14.839c.203-.516.468-1.009.789-1.465.635-.903 1.881-1.123 2.786-.487.904.635 1.122 1.882.487 2.786-.138.197-.253.409-.34.631l-5.844 14.839c-1.025 2.604-2.646 4.993-4.687 6.908l-8.988 8.436c-.386.362-.878.542-1.368.542zm26.589-34.115c-.804 0-1.562-.488-1.867-1.283-.396-1.031.118-2.188 1.149-2.584l.737-.283c1.032-.397 2.188.118 2.584 1.149s-.118 2.188-1.149 2.584l-.737.283c-.236.091-.478.134-.717.134z" fill="#939598"/></g></g><g><g><path d="m248.91 224.575-3.275-20.566c-.151-.946-.424-1.868-.812-2.743l-14.814-33.381c-1.035-2.332-1.231-4.951-.553-7.411l10.272-37.312c.448-1.627.517-3.336.202-4.994l-7.823-41.145c-.452-2.379-1.674-4.543-3.477-6.16l-7.515-6.738c.458.911.799 1.883.992 2.898l7.823 41.145c.315 1.658.246 3.367-.202 4.994l-10.272 37.312c-.677 2.46-.482 5.079.553 7.411l14.814 33.381c.388.875.661 1.797.812 2.743l3.275 20.566c1.068 6.708-4.114 12.781-10.906 12.781h-50.596-57.507c-.335 0-.665-.021-.992-.05.504 5.635 5.231 10.05 10.992 10.05h57.507 50.596c6.792-.001 11.975-6.074 10.906-12.781z" fill="#58595b"/></g></g><g><g><path d="m248.91 224.575-3.275-20.566c-.151-.946-.424-1.868-.812-2.743l-14.814-33.381c-1.035-2.332-1.231-4.951-.553-7.411l10.272-37.312c.448-1.627.517-3.336.202-4.994l-7.823-41.145c-.452-2.379-1.674-4.543-3.477-6.16l-3.122-2.799c.779 1.197 1.329 2.538 1.6 3.959l7.823 41.145c.315 1.658.246 3.367-.202 4.994l-10.272 37.312c-.677 2.46-.482 5.079.553 7.411l14.814 33.381c.388.875.661 1.797.812 2.743l3.275 20.566c1.068 6.708-4.114 12.781-10.906 12.781h-50.596-57.507c-1.758 0-3.414-.421-4.89-1.153 1.805 3.643 5.551 6.153 9.89 6.153h57.507 50.596c6.791-.001 11.974-6.074 10.905-12.781z" fill="#414042"/></g></g><g><g><path d="m107.816 229.834-5.062-64.231c-.211-2.68-1.943-4.999-4.453-5.963l-16.86-6.473c-.835-.321-1.601-.799-2.255-1.409l-22.291-20.773c-2.103-1.959-5.192-2.428-7.781-1.181l-27.44 13.219c-1.762.849-3.087 2.399-3.651 4.272l-4.592 15.247c-.343 1.139-.389 2.347-.133 3.509l5.041 22.92c.367 1.669.109 3.414-.726 4.905l-9.773 17.451c-.843 1.505-1.098 3.269-.716 4.952l3.553 15.646c.721 3.176 3.544 5.43 6.801 5.43h83.387c4.066 0 7.27-3.466 6.951-7.521z" fill="#58595b"/></g></g><g><g><path d="m107.816 229.834-5.062-64.231c-.211-2.68-1.943-4.999-4.453-5.963l-.779-.299c.11.41.198.829.232 1.262l5.062 64.231c.32 4.055-2.885 7.522-6.952 7.522h-83.388c-.602 0-1.18-.1-1.742-.246.789 3.075 3.551 5.246 6.742 5.246h83.387c4.068-.001 7.272-3.467 6.953-7.522z" fill="#414042"/></g></g><g><path d="m190.561 120.936-24.127-.794 18.743 117.213h24z" fill="#fcc4ae"/><path d="m64.816 116.799-9.639 120.556h24l9.576-119.768z" fill="#fcc4ae"/><g><g><path d="m88.753 117.587-9.576 119.768h106l-18.743-117.213z" fill="#7c3108"/></g></g><g><g><path d="m98.521 122.743 68.69 2.26-.777-4.861-77.681-2.556-9.576 119.769h5.4l8.796-110.013c.213-2.662 2.479-4.686 5.148-4.599z" fill="#6d2e03"/></g></g><g><g><path d="m201.183 121.286-147.715-4.86c-1.042-.04-1.879-.873-1.922-1.915l-.833-19.993c-.049-1.165.906-2.125 2.072-2.082l151.05 4.84c1.173.043 2.056 1.082 1.911 2.247l-2.502 20.014c-.129 1.028-1.024 1.788-2.061 1.749z" fill="#f2ad97"/></g></g></g><g><g><path d="m79.002 169.488c-1.894-1.736-5.435-3.099-11.543.267-2.273 1.253-4.739 3.083-7.305 5.358l-.473 5.921c3.455-3.454 6.772-6.157 9.709-7.776 2.224-1.225 5.228-2.363 6.91-.821 3.871 3.548.126 10.855-6.304 22.483-4.077 7.373-8.698 15.729-11.901 25.126-.762 2.234-1.444 4.478-2.069 6.709l-.848 10.602h2.396c1.08-5.18 2.478-10.653 4.306-16.02 3.09-9.061 7.62-17.252 11.616-24.48 6.646-12.021 11.896-21.512 5.506-27.369z" fill="#f2ad97"/></g></g><g><g><path d="m66.682 179.971c-1.868.696-4.44 2.432-7.307 4.889l-.467 5.844c.427-.417.853-.825 1.278-1.221 4.655-4.338 7.345-5.661 8.311-5.901.205 1.001-1.3 3.195-3.801 6.724-1.859 2.624-4.104 5.8-6.547 9.886l-.805 10.064c.88-1.912 1.84-3.839 2.905-5.727 2.878-5.092 5.557-8.873 7.71-11.911 3.744-5.282 6.216-8.772 3.393-11.987-.725-.825-2.123-1.609-4.67-.66z" fill="#f2ad97"/></g></g><g><g><path d="m204.387 110.39c-13.909 2.782-38.444 4.354-54.834-13.414-.359-.389-.772-.899-1.242-1.48l-4.007-.128c.595.688 1.126 1.339 1.603 1.929.535.661.998 1.232 1.441 1.713 16.99 18.419 41.972 17.28 56.648 14.509z" fill="#e59076"/></g></g><g><g><path d="m196.633 100.486c-.719.682-3.149 1.757-8.252 2.171-4.95.402-10.527.006-13.878-.986-4.471-1.323-8.89-3.668-11.543-5.706l-4.429-.142c2.678 3.572 10.028 7.217 15.12 8.724 3.729 1.104 9.605 1.535 14.972 1.1 4.555-.37 10.18-1.473 11.112-4.625.064-.219.094-.43.094-.631 0-1.752-2.229-2.862-3.016-3.254-.063-.031-.137-.063-.202-.094l-10.555-.338c5.98 1.528 9.52 2.956 10.577 3.781z" fill="#e59076"/></g></g><g><g><path d="m91.249 105.435c-11.89-1.307-26.104-.469-40.06.485l.167 3.998c13.815-.944 27.878-1.78 39.456-.507 8.668.954 15.91 4.625 21.653 8.956l6.658.219c-6.691-6.057-15.988-11.845-27.874-13.151z" fill="#e59076"/></g></g><g><g><path d="m103.062 99.823c17.46 3.952 35.518 8.041 43.934 13.704 2.876 1.936 5.293 4.044 7.334 6.217l5.488.181c-2.689-3.383-6.143-6.724-10.588-9.715-9.046-6.086-26.646-10.069-45.285-14.287-3.134-.71-6.285-1.423-9.403-2.149l-18.499-.594c8.392 2.427 17.774 4.551 27.019 6.643z" fill="#e59076"/></g></g><g><g><path d="m86.994 139.589c-3.043 2.79-6.867 5.396-10.504 7.869-6.894 4.687-12.853 8.74-12.815 13.591.013 1.578-1.051 3.217-2.782 4.826l-.432 5.401c4.122-2.906 7.244-6.386 7.214-10.258-.021-2.714 5.863-6.716 11.065-10.252 2.558-1.74 5.275-3.591 7.808-5.582z" fill="#f2ad97"/></g></g><g><g><path d="m201.041 186.48c-9.111-11.489-16.665-22.361-18.12-30.335-2.282-12.505 4.09-20.404 9.33-24.633l-.703-4.395c-6.21 4.487-15.435 14.005-12.563 29.746 1.846 10.122 12.027 23.72 23.327 37.572z" fill="#f2ad97"/></g></g><g><g><path d="m203.275 237.355c.412-5.345-.084-11.517-2.339-18.267-3.189-9.544-13.247-22.115-24.367-35.561l1.252 7.831c8.853 10.88 16.778 21.389 19.32 28.997 2.095 6.273 2.5 12.034 2.063 17.001h4.071z" fill="#f2ad97"/></g></g><g><g><path d="m63.004 139.462-.255 3.183c.409-.105.795-.209 1.144-.318 10.699-3.355 18.527-9.834 24.262-17.261l.466-5.834c-5.588 8.635-13.743 16.504-25.617 20.23z" fill="#f2ad97"/></g></g><g><g><path d="m198.054 167.798c-1.234-1.353-2.279-2.671-3.002-3.831-3.689-5.915-5.79-13.477-4.923-15.518.024-.058.046-.099.064-.127.826.37 2.793 2.097 5.573 5.172l-.832-5.204c-3.535-3.344-4.711-3.095-5.274-2.976-1.034.22-1.847.916-2.292 1.961-1.656 3.896 1.921 13.119 5.138 18.279 1.38 2.212 3.691 4.835 6.356 7.301z" fill="#f2ad97"/></g></g><g><g><path d="m69.471 219.848c-2.967 5.61-3.645 11.886-3.671 17.507h3.004c.029-5.262.653-11.066 3.318-16.104 2.014-3.808 5.429-7.665 9.252-11.39l.358-4.478c-4.955 4.596-9.632 9.496-12.261 14.465z" fill="#f2ad97"/></g></g><g><g><path d="m183.912 220.497c-.533-.114-1.008-.133-1.448-.106l.48 3.002c.109.009.21.01.34.038 4.075.871 5.865 7.889 6.563 13.925h3.062c-.692-6.663-2.786-15.531-8.997-16.859z" fill="#f2ad97"/></g></g><g><g><g><circle cx="218.112" cy="91.513" fill="#58595b" r="2.949"/></g></g><g><g><circle cx="211.385" cy="75.089" fill="#58595b" r="4.496"/></g></g><g><g><circle cx="200.107" cy="63.069" fill="#58595b" r="4.198"/></g></g><g><g><circle cx="189.267" cy="58.078" fill="#58595b" r="2.807"/></g></g><g><g><circle cx="194.935" cy="76.41" fill="#58595b" r="3.174"/></g></g></g></g></svg>