<svg height="512pt" viewBox="0 -20 512.0003 512" width="512pt" xmlns="http://www.w3.org/2000/svg"><path d="m393.5 30h-128.992188c-8.285156 0-15-6.714844-15-15s6.714844-15 15-15h128.992188c8.285156 0 15 6.714844 15 15s-6.714844 15-15 15zm0 0" fill="#c9dff7"/><path d="m456.496094 98.699219h-76.496094c-8.285156 0-15-6.71875-15-15 0-8.285157 6.714844-15 15-15h76.496094c8.285156 0 15 6.714843 15 15 0 8.28125-6.714844 15-15 15zm0 0" fill="#9ebbdb"/><path d="m132 64.628906h-76.496094c-8.285156 0-15-6.714844-15-15 0-8.28125 6.714844-15 15-15h76.496094c8.28125 0 15 6.71875 15 15 0 8.285156-6.71875 15-15 15zm0 0" fill="#c9dff7"/><path d="m497 472h-272.816406c-5.300782 0-10.207032-2.796875-12.910156-7.359375-2.699219-4.558594-2.789063-10.207031-.242188-14.855469l117.8125-214.730468c6.3125-11.503907 17.503906-18.414063 29.9375-18.484376h.195312c12.34375 0 23.507813 6.753907 29.902344 18.101563l121.1875 214.960937c2.617188 4.644532 2.574219 10.332032-.113281 14.933594-2.691406 4.605469-7.621094 7.433594-12.953125 7.433594zm0 0" fill="#9ebbdb"/><path d="m388.878906 234.671875c-6.304687-11.1875-17.25-17.894531-29.378906-18.082031v255.410156h137.5c5.332031 0 10.261719-2.828125 12.953125-7.433594 2.6875-4.605468 2.730469-10.289062.113281-14.933594zm0 0" fill="#82a0d2"/><path d="m401.691406 472h-386.691406c-5.300781 0-10.207031-2.796875-12.910156-7.359375-2.699219-4.558594-2.789063-10.207031-.238282-14.855469l173.976563-317.097656c6.3125-11.5 17.5-18.414062 29.9375-18.484375h.195313c12.339843 0 23.507812 6.753906 29.902343 18.101563l178.894531 317.328124c2.621094 4.644532 2.578126 10.332032-.113281 14.933594-2.6875 4.605469-7.621093 7.433594-12.953125 7.433594zm0 0" fill="#5877a6"/><path d="m235.863281 132.300781c-6.398437-11.34375-17.566406-18.097656-29.902343-18.097656-.066407 0-.132813 0-.195313 0-.089844 0-.175781.007813-.265625.007813v357.789062h196.191406c5.332032 0 10.265625-2.828125 12.953125-7.433594 2.691407-4.605468 2.730469-10.289062.113281-14.933594zm0 0" fill="#2d5078"/><path d="m235.863281 132.300781c-6.398437-11.34375-17.566406-18.097656-29.902343-18.097656-.066407 0-.132813 0-.195313 0-12.4375.070313-23.628906 6.980469-29.9375 18.484375l-72.40625 131.964844 43.613281 77.742187c2.660156 4.722657 7.65625 7.644531 13.074219 7.644531h.058594c5.4375-.019531 10.4375-2.984374 13.070312-7.742187l32.261719-58.359375 13.507812 23.789062c2.671876 4.75 7.734376 7.675782 13.152344 7.648438 5.449219-.027344 10.453125-3.007812 13.074219-7.785156l44.121094-80.402344zm0 0" fill="#c9dff7"/><path d="m205.960938 114.203125c-.066407 0-.132813 0-.195313 0-.089844 0-.175781.007813-.265625.007813v169.726562l13.507812 23.789062c2.671876 4.75 7.734376 7.675782 13.152344 7.648438 5.449219-.027344 10.453125-3.007812 13.074219-7.785156l44.121094-80.402344-53.492188-94.886719c-6.398437-11.34375-17.5625-18.097656-29.902343-18.097656zm0 0" fill="#9ebbdb"/></svg>