<svg id="Layer_3" height="512" viewBox="0 0 64 64" width="512" xmlns="http://www.w3.org/2000/svg" data-name="Layer 3"><path d="m53 17.5v36.5h-42v-36.5l21-10.5z" fill="#a37765"/><path d="m11 20.5v33.5h42v-33.5l-21-10.5z" fill="#bf9377"/><path d="m47 54v-34l-15-8-15 8v34z" fill="#785349"/><path d="m17 22v32h30v-32l-15-8z" fill="#916658"/><path d="m7 58h50v4h-50z" fill="#212121"/><path d="m9 54h45.999v4h-45.999z" fill="#4c4c4c"/><path d="m32 2 26 13-2 4-24-12-24 12-2-4z" fill="#ff4d55"/><path d="m7.2 17.4.803 1.6 24.097-12 24.097 12 .803-1.6-24.9-12.4z" fill="#e73844"/><g fill="#785349"><path d="m22 17.333v36.667h2v-37.733z"/><path d="m27.999 14.134.001 39.866h2l-.001-40.933z"/><path d="m33.999 13.066.001 40.934h2l-.001-39.867z"/><path d="m40 16.267v37.733h2v-36.667z"/></g><path d="m43 54h4v-6l-26.687-29.767-3.313 1.767v5z" fill="#a37765"/><circle cx="41" cy="33" fill="#785349" r="2"/><path d="m13 56h42v-2h-44a2 2 0 0 0 2 2z" fill="#595959"/><path d="m11 60h46v-2h-48a2 2 0 0 0 2 2z" fill="#383838"/></svg>