<svg xmlns="http://www.w3.org/2000/svg" xml:space="preserve" style="enable-background:new 0 0 511.999 511.999" viewBox="0 0 511.999 511.999"><path d="M502.42 89.036c-12.773 12.763-33.47 12.763-46.243 0-.409-.42-.819-.84-1.207-1.27L151.994 390.741l-64.233 64.233c.43.388.861.787 1.27 1.207 12.773 12.763 12.773 33.47 0 46.243-12.773 12.763-33.47 12.763-46.243 0-6.518-6.528-9.698-15.114-9.561-23.647-8.543.136-17.129-3.054-23.647-9.572-12.773-12.763-12.773-33.47 0-46.243 12.763-12.763 33.47-12.763 46.243 0 .409.42.808.84 1.196 1.27L424.228 57.024c-.43-.388-.85-.787-1.259-1.207-12.773-12.763-12.773-33.47 0-46.243 12.763-12.763 33.47-12.763 46.243 0 6.518 6.518 9.698 15.103 9.561 23.647 8.543-.136 17.129 3.054 23.647 9.572 12.772 12.762 12.772 33.471 0 46.243z" style="fill:#e8e8e8"/><path d="M502.42 469.207c-6.518 6.518-15.103 9.708-23.647 9.572.136 8.533-3.044 17.118-9.561 23.646-12.773 12.763-33.481 12.763-46.243 0-12.773-12.773-12.773-33.481 0-46.243.409-.42.829-.819 1.259-1.207l-64.233-64.233-8.47-8.47-95.531-95.531L225.253 256 99.034 129.78 57.02 87.767c-.388.43-.787.85-1.196 1.27-12.773 12.763-33.481 12.763-46.243 0-12.773-12.773-12.773-33.481 0-46.243 6.518-6.518 15.103-9.708 23.647-9.572-.136-8.543 3.044-17.129 9.561-23.647 12.773-12.763 33.47-12.763 46.243 0 12.773 12.773 12.773 33.481 0 46.243-.409.42-.84.819-1.27 1.207l33.596 33.596 134.637 134.637L286.736 256l98.165 98.165 9.803 9.803 60.266 60.266c.388-.43.798-.85 1.207-1.27 12.773-12.763 33.47-12.763 46.243 0 12.772 12.773 12.772 33.479 0 46.243z" style="fill:#e8e8e8"/><path d="m384.901 354.164 9.803 9.803h-1.973c-8.921 0-17.297 3.474-23.615 9.782-4.712 4.723-7.84 10.601-9.121 16.992l-8.47-8.47-95.531-95.531-104 104.001c-3.075-15.25-16.583-26.774-32.725-26.774h-1.984l107.968-107.968-126.22-126.22-8.019-8.019a180.026 180.026 0 0 1 22.859-38.624l7.483 7.483 134.637 134.637 142.12-142.12a179.128 179.128 0 0 1 22.859 38.624L286.736 255.999l98.165 98.165z" style="fill:#c1c0bf"/><path d="M404.213 192.984V332.48h-11.482c-17.916 0-34.132 7.263-45.876 19.007-11.734 11.734-18.997 27.95-18.997 45.866v37.091c0 18.105-14.673 32.778-32.778 32.778h-78.171c-18.094 0-32.767-14.673-32.767-32.778v-37.091c0-35.821-29.052-64.873-64.873-64.873h-11.482V192.984c0-81.855 66.353-148.208 148.208-148.208s148.218 66.353 148.218 148.208z" style="fill:#e8e8e8"/><path d="M156.371 298.247c1.21 14.851 8.869 28.403 20.9 37.193 17.27 12.617 40.666 40.951 40.666 101.871 0 12.374 2.225 22.198 6.098 29.912h-7.126c-18.094 0-32.767-14.673-32.767-32.778v-37.091c0-35.829-29.044-64.873-64.873-64.873h-11.482V192.985c0-81.855 66.353-148.208 148.208-148.208-36.414 0-115.813 54.766-99.624 253.47z" style="fill:#c1c0bf"/><path d="M256.497 284.554h-.997c-14.607 0-26.449 11.841-26.449 26.449v15.969c0 7.441 6.033 13.474 13.474 13.474s13.474-6.033 13.474-13.474c0 7.441 6.033 13.474 13.474 13.474s13.474-6.033 13.474-13.474v-15.969c-.002-14.608-11.843-26.449-26.45-26.449z" style="fill:#423d3d"/><circle cx="329.802" cy="243.402" r="43.915" style="fill:#423d3d"/><circle cx="182.203" cy="243.402" r="43.915" style="fill:#423d3d"/><path d="M269.472 348.316a21.242 21.242 0 0 1-13.474-4.802 21.242 21.242 0 0 1-13.473 4.802c-11.77 0-21.345-9.575-21.345-21.345v-15.969c0-18.925 15.396-34.321 34.321-34.321h.998c18.925 0 34.32 15.396 34.32 34.321v15.969c-.002 11.77-9.577 21.345-21.347 21.345zm-13.474-29.217a7.872 7.872 0 0 1 7.872 7.872c0 3.089 2.514 5.602 5.603 5.602s5.602-2.513 5.602-5.602v-15.969c0-10.244-8.333-18.577-18.577-18.577h-.998c-10.244 0-18.577 8.333-18.577 18.577v15.969c0 3.089 2.514 5.602 5.601 5.602s5.601-2.513 5.601-5.602a7.874 7.874 0 0 1 7.873-7.872zM329.798 295.184c-28.555 0-51.786-23.231-51.786-51.786s23.231-51.786 51.786-51.786 51.786 23.231 51.786 51.786-23.231 51.786-51.786 51.786zm0-87.828c-19.874 0-36.043 16.168-36.043 36.043s16.168 36.043 36.043 36.043 36.043-16.168 36.043-36.043-16.169-36.043-36.043-36.043zM182.198 295.184c-28.555 0-51.786-23.231-51.786-51.786s23.231-51.786 51.786-51.786 51.786 23.231 51.786 51.786-23.231 51.786-51.786 51.786zm0-87.828c-19.874 0-36.043 16.168-36.043 36.043s16.168 36.043 36.043 36.043 36.043-16.168 36.043-36.043-16.169-36.043-36.043-36.043zM219.07 432.177a7.872 7.872 0 0 1-7.872-7.872v-56.889a7.872 7.872 0 0 1 15.744 0v56.889a7.872 7.872 0 0 1-7.872 7.872zM255.998 432.177a7.872 7.872 0 0 1-7.872-7.872v-56.889a7.872 7.872 0 0 1 15.744 0v56.889a7.873 7.873 0 0 1-7.872 7.872zM292.926 432.177a7.872 7.872 0 0 1-7.872-7.872v-56.889a7.872 7.872 0 0 1 15.744 0v56.889a7.873 7.873 0 0 1-7.872 7.872z" style="fill:#c1c0bf"/><path d="M184.144 389.48H327.86v15.743H184.144z" style="fill:#c1c0bf"/></svg>