<svg id="Layer_1" enable-background="new 0 0 512 512" height="512" viewBox="0 0 512 512" width="512" xmlns="http://www.w3.org/2000/svg"><g><path d="m392.573 454.568-77.708 45.829c-12.882 7.598-27.55 11.603-42.488 11.603h-32.743c-14.937 0-29.603-4.005-42.484-11.601l-77.719-45.831c-27.273-16.083-43.227-46.202-41.269-77.907l12.929-209.339c1.196-19.365 9.007-37.723 22.114-51.975l81.162-88.252c15.884-17.273 38.23-27.095 61.639-27.095 23.41 0 45.755 9.822 61.639 27.094l81.16 88.251c13.108 14.253 20.919 32.613 22.114 51.98l12.918 209.342c1.958 31.703-13.995 61.818-41.264 77.901z" fill="#78909c"/><path d="m429.325 409.61c-1.648 4.78-3.735 9.39-6.212 13.79-7.141 12.68-17.558 23.52-30.542 31.17l-77.703 45.83c-3.675 2.17-7.511 4.05-11.446 5.62-4.864 1.94-9.898 3.43-15.031 4.43-5.253 1.03-10.607 1.55-16.01 1.55h-32.751c-12.255 0-24.33-2.69-35.376-7.86-2.427-1.13-4.794-2.38-7.101-3.74l-7.061-4.17-70.662-41.66c-12.464-7.35-22.562-17.62-29.673-29.64-2.567-4.36-4.744-8.94-6.512-13.7-4.005-10.85-5.823-22.6-5.084-34.57l12.934-209.34c.34-5.55 1.228-11.02 2.627-16.34 1.688-6.43 4.135-12.63 7.281-18.47 3.306-6.17 7.401-11.94 12.205-17.16l81.159-88.26c14.102-15.34 33.309-24.8 53.823-26.71 2.587-.26 5.194-.38 7.82-.38 2.557 0 5.104.12 7.631.36 9.029.82 17.808 3.11 26.008 6.71 10.497 4.61 20.055 11.39 27.995 20.02l81.159 88.26c6.172 6.72 11.176 14.34 14.862 22.55 2.137 4.75 3.835 9.71 5.064 14.8 1.149 4.77 1.888 9.66 2.197 14.62l12.914 209.35c.698 11.38-.9 22.55-4.515 32.94z" fill="#78909c"/><path d="m433.839 376.667-12.919-209.342c-1.195-19.367-9.006-37.726-22.114-51.98l-81.16-88.251c-15.885-17.272-38.23-27.094-61.639-27.094-5.225 0-10.392.516-15.451 1.469 17.606 3.314 33.849 12.209 46.188 25.626l81.16 88.251c13.108 14.253 20.919 32.613 22.114 51.98l12.918 209.342c1.956 31.703-13.996 61.818-41.266 77.901l-77.708 45.829c-12.882 7.597-27.55 11.602-42.488 11.602h30.903c14.938 0 29.605-4.005 42.487-11.603l77.708-45.829c27.27-16.083 43.223-46.198 41.267-77.901z" fill="#607d8b"/><g><path d="m418.728 152.7-106.278 75.55c-1.308.93-2.827 1.38-4.325 1.38-2.347 0-4.654-1.1-6.112-3.16-2.397-3.37-1.608-8.06 1.768-10.45l109.883-78.12c2.137 4.75 3.835 9.71 5.064 14.8z" fill="#607d8b"/><path d="m429.325 409.61c-1.648 4.78-3.735 9.39-6.212 13.79l-105.878-31.91c-3.965-1.19-6.212-5.38-5.014-9.34 1.188-3.97 5.373-6.22 9.328-5.02z" fill="#607d8b"/><g fill="#90a4ae"><path d="m263.641.36-36.594 147.16c-.849 3.41-3.905 5.69-7.261 5.69-.599 0-1.208-.07-1.818-.22-4.015-1-6.462-5.07-5.463-9.09l35.685-143.52c2.587-.26 5.194-.38 7.82-.38 2.557 0 5.104.12 7.631.36z"/><path d="m142.991 229.36c-1.109.58-2.297.85-3.456.85-2.707 0-5.313-1.47-6.652-4.03l-39.161-75.2c1.688-6.43 4.135-12.63 7.281-18.47l45.164 86.73c1.917 3.67.489 8.2-3.176 10.12z"/><path d="m141.912 389.52-52.155 35.41c-2.567-4.36-4.744-8.94-6.512-13.7l50.257-34.13c3.416-2.32 8.08-1.43 10.397 2 2.328 3.43 1.429 8.09-1.987 10.42z"/></g><path d="m303.421 506.02c-4.864 1.94-9.898 3.43-15.031 4.43l-48.23-73.06c-2.277-3.46-1.328-8.11 2.117-10.4 3.456-2.28 8.1-1.33 10.387 2.12z" fill="#607d8b"/><path d="m211.565 440.56-7.311 63.58c-2.427-1.13-4.794-2.38-7.101-3.74l-7.061-4.17 6.592-57.39c.47-4.11 4.205-7.07 8.3-6.59 4.105.47 7.061 4.19 6.581 8.31z" fill="#90a4ae"/></g><path d="m310.659 414.341-47.563 30.039c-7.885 4.98-16.862 7.605-26.006 7.605h-20.041c-9.142 0-18.119-2.625-26.003-7.604l-47.57-30.04c-16.693-10.542-26.458-30.283-25.26-51.065l7.914-137.213c.732-12.693 5.513-24.726 13.535-34.067l49.677-57.846c20.331-23.674 55.121-23.679 75.456 0l49.676 57.844c8.023 9.342 12.804 21.376 13.535 34.07l7.907 137.215c1.198 20.782-8.566 40.521-25.257 51.062z" fill="#90a4ae"/></g></svg>