<svg id="Layer_2" height="512" viewBox="0 0 512 512" width="512" xmlns="http://www.w3.org/2000/svg"><g><g><path d="m386 336h-260c-11.046 0-20-8.954-20-20v-34c0-11.046 8.954-20 20-20h260c11.046 0 20 8.954 20 20v34c0 11.046-8.954 20-20 20z" fill="#6e83b7"/></g><g><path d="m126 336h260v74h-260z" fill="#466089"/></g><g><path d="m359 212 27.738 88s-64.341 36-130.738 36-130.738-36-130.738-36l27.738-88z" fill="#ffe352"/></g><g><path d="m440 414.93v87.07h-368v-87.07c0-28.389 19.896-52.892 47.68-58.722l96.32-20.208h80l96.32 20.208c27.784 5.829 47.68 30.333 47.68 58.722z" fill="#ffb0aa"/></g><g><path d="m256 408c37.459 0 68.314-28.758 71.681-65.353l-31.681-6.647h-80l-31.681 6.647c3.367 36.595 34.222 65.353 71.681 65.353z" fill="#ff7b7b"/></g><g><path d="m256 376c-22.091 0-40-17.909-40-40v-36h80v36c0 22.091-17.909 40-40 40z" fill="#fcb98b"/></g><g><path d="m256 310c-51.363 0-93-41.637-93-93v-69h186v69c0 51.363-41.637 93-93 93z" fill="#ffd3b3"/></g><g><path d="m256 10c56.885 0 103 46.115 103 103v35h-206v-35c0-56.885 46.115-103 103-103z" fill="#ffb236"/></g><g><path d="m173 10h166l30 108h-226z" fill="#6e83b7"/></g><g><path d="m151.333 88-8.333 30h226l-8.333-30z" fill="#ffb0aa"/></g><g><path d="m359 212c17.673 0 32-14.327 32-32s-14.327-32-32-32h-10v64z" fill="#fcb98b"/></g><g><path d="m153 212c-17.673 0-32-14.327-32-32s14.327-32 32-32h10v64z" fill="#fcb98b"/></g><g><path d="m349 212-24-64h24z" fill="#ffe352"/></g><g><path d="m163 212 24-64h-24z" fill="#ffe352"/></g><g><path d="m328 342.714v159.286h32v-152.573z" fill="#6e83b7"/></g><g><path d="m184 342.714v159.286h-32v-152.573z" fill="#6e83b7"/></g><g><path d="m369 118 30 30h-286l30-30z" fill="#6e83b7"/></g></g></svg>