<?xml version="1.0" encoding="iso-8859-1"?>
<!-- Generator: Adobe Illustrator 19.0.0, SVG Export Plug-In . SVG Version: 6.00 Build 0)  -->
<svg version="1.1" id="Capa_1" xmlns="http://www.w3.org/2000/svg" xmlns:xlink="http://www.w3.org/1999/xlink" x="0px" y="0px"
	 viewBox="0 0 512 512" style="enable-background:new 0 0 512 512;" xml:space="preserve">
<path style="fill:#2DAD42;" d="M191.779,50.062c-7.385-18.852-25.889-31.493-46.143-31.493c-20.255,0-38.758,12.642-46.143,31.493
	c-28.531,3.459-49.59,28.384-48.249,57.068c-22.891,11.631-26.735,42.336-8.07,59.383c-0.898,6.305-0.736,11.905,0.162,17.861
	c1.917-0.441,2.922-0.641,4.963-0.88c11.188-28.997,51.808-29.171,63.063,0c7.423,0.869,13.45,3.417,19.345,7.976
	c3.751-8.85,9.655-14.846,17.43-18.701c-1.472-29.01,19.27-53.382,47.923-56.737c6.527-16.917,21.079-28.893,40.364-31.159
	C228.34,64.63,210.917,52.384,191.779,50.062z"/>
<path style="fill:#2B9337;" d="M71.836,107.13c-1.197-25.586,15.509-48.502,39.886-55.392c5.179-1.464,9.477-4.988,12.31-9.564
	c7.109-11.485,18.726-19.655,31.901-22.497c-24.16-5.212-47.866,8.501-56.439,30.385c-28.531,3.459-49.59,28.384-48.249,57.068
	c-22.891,11.631-26.735,42.336-8.07,59.383c-0.898,6.305-0.736,11.905,0.162,17.861c1.917-0.441,2.922-0.641,4.963-0.88
	c2.988-7.746,8.261-13.648,14.969-17.461C45.182,148.872,49.141,118.662,71.836,107.13z"/>
<path style="fill:#2DAD42;" d="M327.151,279.284c0.021-0.426,0.031-0.855,0.036-1.285c-9.146,9.319-21.371,16.635-35.03,18.243
	c-17.929,17.084-57.15,19.914-82.605,10.248c1.184,2.549,2.867,7.909,4.932,9.767c-2.814,19.138,10.84,36.344,29.477,38.538
	c13.553,12.911,44.818,12.89,58.345,0l23.873-14.41c4.863-7.047,6.851-15.617,5.605-24.127
	C344.907,304.45,336.638,283.998,327.151,279.284z"/>
<path style="fill:#93603E;" d="M414.067,308.683c-3.805-3.571-9.748-3.51-13.478,0.14l-11.036,10.798
	c-2.119,2.073-5.689,0.604-5.735-2.36l-0.775-50.246c-2.596-1.562-4.92-3.288-6.89-5.164c-7.917-0.932-15.239-3.782-21.515-8.054
	c-0.194,11.233-0.369,29.846-0.519,50.692c-0.002,0.001-0.003,0.002-0.005,0.003c-0.454,12.325-0.937,25.107-1.926,42.585
	c-0.187,3.31-3.755,5.299-6.671,3.721c-8.963-4.85-22.56-11.821-33.275-18.559c-5.409-3.401-12.514-2.111-16.387,2.971l0,0
	c-3.792,4.976-2.746,12.116,2.344,15.754c14.225,10.166,33.566,21.476,49.003,32.943c1.501,1.115,2.311,2.935,2.168,4.8
	c-1.947,25.439-5.679,70.121-13.014,97.001c14.815,0,61.689,0,78.263,0c-22.281-43.66-24.616-96.105-25.843-125.636
	c-0.097-2.342,0.804-4.614,2.479-6.254l29.391-28.76c2.901-2.839,2.853-7.524-0.107-10.302L414.067,308.683z"/>
<g>
	<path style="fill:#845535;" d="M354.639,253.797c-0.194,11.233-0.369,29.846-0.519,50.692c-0.002,0.001-0.003,0.002-0.005,0.003
		c-0.454,12.325-0.937,25.107-1.926,42.585c-0.173,3.053-3.22,4.974-5.98,4.019l2.591,1.114c7.576,3.258,16.056-2.127,16.329-10.369
		l2.713-81.732C363.094,258.67,358.651,256.528,354.639,253.797z"/>
	<path style="fill:#845535;" d="M353.516,478.049c7.309-26.784,11.061-71.479,13.014-97.001c0.143-1.865-0.666-3.684-2.168-4.8
		c-15.436-11.467-34.777-22.777-49.002-32.943c-3.82-2.73-5.362-7.432-4.291-11.712c-5.227-2.547-11.614-1.105-15.213,3.617l0,0
		c-3.792,4.976-2.746,12.116,2.344,15.754c14.225,10.166,33.566,21.476,49.003,32.943c1.501,1.115,2.311,2.935,2.168,4.8
		c-1.945,25.422-5.674,70.103-13.014,97.001c14.805,0,61.699,0,78.263,0c-1.289-2.525-2.503-5.082-3.662-7.66
		C400.001,478.049,367.448,478.049,353.516,478.049z"/>
</g>
<path style="fill:#3BBC56;" d="M377.047,59.857c-13.608-34.594-62.767-34.505-76.34,0c-16.037,1.969-31.065,12.802-37.323,29.992
	c11.419,5.924,19.196,15.055,23.489,26.183c24.727,2.895,45.281,22.108,47.866,49.435c2.078-1.67,3.556-2.782,6.295-4.14
	c-1.216-23.956,15.824-44.049,39.547-46.826c5.285-13.698,17.077-23.821,33.395-25.738C407.218,71.84,392.806,61.79,377.047,59.857z
	"/>
<path style="fill:#2DAD42;" d="M317.311,75.767c8.661-22.018,35.016-32.913,57.129-21.31c-17.292-29.969-61.274-26.275-73.733,5.4
	c-16.037,1.969-31.065,12.802-37.323,29.992c6.715,3.483,12.466,8.171,17.149,14.525C286.575,88.948,300.867,77.786,317.311,75.767z
	"/>
<path style="fill:#93603E;" d="M213.021,307.708c-8.026-2.612-16.16-6.7-22.245-12.496c-0.478-0.056-0.948-0.138-1.422-0.205
	l-23.039,22.543c-1.704,1.667-4.574,0.46-4.574-1.924v-32.321c-4.218-3.271-7.996-7.176-10.855-10.936
	c-1.657,11.809-8.539,22.55-18.969,29.033l0,0c-0.47,12.767-0.972,26.025-2.035,44.485c-0.136,2.356-2.856,3.613-4.729,2.178
	c-12.054-9.235-21.321-21.558-27.534-31.455c-6.645,1.887-13.711,2.611-20.557,2.341c7.618,13.213,23.777,41.57,46.542,60.632
	c2.363,1.978,3.671,4.941,3.466,8.016c-1.827,27.453-5.673,71.58-12.912,98.11c14.815,0,61.689,0,78.263,0
	c-22.338-43.77-24.628-99.224-25.853-128.934c-0.091-2.211,0.76-4.353,2.342-5.901L213.021,307.708L213.021,307.708z"/>
<g>
	<path style="fill:#845535;" d="M145.735,287.167c-3.449,5.928-8.215,10.753-13.817,14.236l0,0
		c-0.47,12.767-0.972,26.025-2.035,44.485c-0.135,2.357-2.856,3.613-4.729,2.178l3.104,2.321c5.536,4.14,13.457,0.48,13.892-6.419
		L145.735,287.167z"/>
	<path style="fill:#845535;" d="M141.387,379.583c-10.207-8.547-39.52-37.953-50.262-61.515c-4.696,0.795-9.442,1.066-14.063,0.883
		c7.618,13.213,23.777,41.57,46.542,60.632c2.363,1.978,3.671,4.941,3.466,8.016c-1.826,27.453-5.673,71.58-12.912,98.109h17.784
		c7.241-26.536,11.087-70.676,12.912-98.109C145.058,384.524,143.75,381.561,141.387,379.583z"/>
</g>
<path style="fill:#2DAD42;" d="M495.528,161.018c1.178-24.353-16.763-44.337-39.71-46.991c-13.277-34.532-62.314-34.569-75.604,0
	c-23.199,2.682-40.944,22.974-39.71,46.991c-1.914,0.951-3.691,2.125-5.341,3.45h-5.779l11.326,82.12l2.913-0.001
	c7.778,9.95,19.339,16.8,32.532,18.353c19.448,18.527,64.311,18.496,83.722,0c26.721-3.145,46.323-27.792,42.301-55.301
	C517.718,195.656,514.316,170.355,495.528,161.018z"/>
<path style="fill:#2B9337;" d="M406.81,264.94c-26.721-3.145-46.323-27.792-42.301-55.301c-15.541-13.983-12.139-39.284,6.65-48.621
	c-1.178-24.353,16.763-44.337,39.71-46.991c4.003-10.41,12.176-18.75,22.474-22.969c-20.903-8.562-44.955,1.706-53.129,22.969
	c-23.199,2.682-40.944,22.974-39.71,46.991c-1.914,0.951-3.691,2.125-5.341,3.45h-5.779l11.326,82.12l2.913-0.001
	c7.778,9.95,19.339,16.8,32.532,18.353c12.407,11.819,36.126,16.559,57.189,12.432C422.269,275.202,412.91,270.753,406.81,264.94z"
	/>
<path style="fill:#8DD83D;" d="M210.713,426.748c-10.444,0-18.911,8.468-18.911,18.912c0,24.937,0,14.988,0,40.049h37.824
	c0-7.58,0-32.15,0-40.049C229.626,435.216,221.159,426.748,210.713,426.748z"/>
<path style="fill:#3BBC56;" d="M248.537,447.013c-10.444,0-18.911,8.469-18.911,18.912v19.784h37.823v-19.784
	C267.449,455.481,258.981,447.013,248.537,447.013z"/>
<path style="fill:#7FBF36;" d="M222.55,430.923c-12.331-9.917-30.748-1.116-30.748,14.737c0,16.886,0,20.49,0,40.049h23.673
	C215.475,443.993,213.393,438.287,222.55,430.923z"/>
<path style="fill:#2DAD42;" d="M260.374,451.187c-12.312-9.902-30.748-1.147-30.748,14.737v19.784h23.673v-19.784
	C253.299,459.964,256.064,454.654,260.374,451.187z"/>
<path style="fill:#E2926F;" d="M426.857,493.431H102.568c-4.265,0-7.722-3.457-7.722-7.722s3.457-7.722,7.722-7.722h324.289
	c4.265,0,7.722,3.457,7.722,7.722C434.579,489.974,431.122,493.431,426.857,493.431z"/>
<path style="fill:#8DD83D;" d="M335.328,172.459c1.431-29.486-20.299-53.689-48.086-56.903c-16.077-41.816-75.457-41.86-91.551,0
	c-28.144,3.254-49.583,27.88-48.086,56.903c-7.664,3.808-13.759,10.281-17.112,18.196c9.594,7.398,15.374,19.078,14.746,32.017
	c15.862,7.882,18.722,29.235,5.612,41.03c0.573,3.914,0.584,7.852,0.035,11.756c9.419,12.388,23.637,20.93,39.889,22.843
	c23.551,22.434,77.876,22.397,101.381,0c32.366-3.809,56.091-33.663,51.224-66.965C362.199,214.403,358.08,183.765,335.328,172.459z
	"/>
<path style="fill:#7FBF36;" d="M217.476,298.301c-32.357-3.808-56.093-33.654-51.224-66.965
	c-18.819-16.933-14.699-47.571,8.053-58.876c-1.432-29.424,20.242-53.683,48.086-56.903c5.504-14.316,17.522-25.399,32.426-29.609
	c-24.581-6.945-50.096,6.125-59.125,29.609c-28.142,3.254-49.585,27.88-48.086,56.903c-7.664,3.808-13.759,10.281-17.112,18.196
	c9.62,7.418,15.371,19.106,14.746,32.017c15.862,7.882,18.722,29.236,5.612,41.03c0.575,3.931,0.582,7.868,0.035,11.756
	c9.419,12.388,23.637,20.93,39.89,22.843c15.216,14.495,42.177,18.906,64.04,15.909
	C239.142,312.062,225.801,306.233,217.476,298.301z"/>
<path style="fill:#3BBC56;" d="M145.769,222.363c0.872-20.011-13.789-37.359-33.671-39.819c-11.531-29.2-53.029-29.134-64.535,0
	c-19.897,2.461-34.561,19.841-33.673,39.82c-16.044,8.231-18.549,29.659-5.63,41.535c-3.228,23.037,13.045,44.162,36.013,46.96
	c16.638,15.663,54.486,15.658,71.112,0c22.9-2.79,39.24-23.84,36.015-46.96C164.337,252.006,161.785,230.576,145.769,222.363z"/>
<path style="fill:#2DAD42;" d="M64.866,310.859c-22.933-2.794-39.246-23.886-36.013-46.96c-12.939-11.895-10.385-33.32,5.63-41.535
	c-0.888-19.982,13.778-37.359,33.673-39.82c3.893-9.856,12.131-17.274,21.972-20.372c-17.645-5.554-36.084,3.964-42.564,20.372
	c-19.897,2.461-34.561,19.841-33.673,39.82c-16.044,8.231-18.549,29.659-5.63,41.535c-3.228,23.037,13.045,44.162,36.013,46.96
	c11.066,10.418,30.482,13.302,45.854,10.985C79.817,320.289,70.779,316.426,64.866,310.859z"/>
<g>
</g>
<g>
</g>
<g>
</g>
<g>
</g>
<g>
</g>
<g>
</g>
<g>
</g>
<g>
</g>
<g>
</g>
<g>
</g>
<g>
</g>
<g>
</g>
<g>
</g>
<g>
</g>
<g>
</g>
</svg>
