<svg id="Capa_1" enable-background="new 0 0 512 512" height="512" viewBox="0 0 512 512" width="512" xmlns="http://www.w3.org/2000/svg"><g><path d="m79.944 388.276c-4.267 0-7.726-3.459-7.726-7.726v-61.957c0-4.268 3.459-7.726 7.726-7.726 4.268 0 7.726 3.459 7.726 7.726v61.957c.001 4.267-3.458 7.726-7.726 7.726z" fill="#fdd602"/><path d="m256 388.276c-4.268 0-7.726-3.459-7.726-7.726v-61.957c0-4.268 3.459-7.726 7.726-7.726 4.268 0 7.726 3.459 7.726 7.726v61.957c0 4.267-3.459 7.726-7.726 7.726z" fill="#fdd602"/><g fill="#fda302"><path d="m319.282 250.883c-10.498-.928-35.009-1.335-49.121 12.777-6.299 6.299-22.023 6.299-28.322 0-14.112-14.112-38.623-13.705-49.121-12.777-2.984.264-5.34 2.62-5.604 5.604-.928 10.497-1.335 35.009 12.777 49.121 18.31 18.31 42.543 23.762 54.127 12.179.728-.728 1.388-1.506 1.982-2.329.594.823 1.255 1.602 1.983 2.329 11.584 11.583 35.817 6.131 54.126-12.179 14.112-14.112 13.705-38.623 12.777-49.121-.264-2.984-2.62-5.34-5.604-5.604z"/><path d="m312.109 211.66c12.898-15.23 13.705-38.623 12.777-49.121-.264-2.984-2.62-5.34-5.604-5.604-10.498-.929-35.009-1.335-49.121 12.777-6.299 6.299-22.023 6.299-28.322 0-14.112-14.112-38.623-13.705-49.121-12.777-2.984.264-5.34 2.62-5.604 5.604-.928 10.498.295 33.549 12.777 49.121 35.538 44.34 91.526 24.434 112.218 0z"/></g><g fill="#fda302"><path d="m143.227 250.883c-10.498-.928-35.009-1.335-49.121 12.777-6.299 6.299-22.023 6.299-28.322 0-14.112-14.112-38.623-13.705-49.121-12.777-2.984.264-5.34 2.62-5.604 5.604-.928 10.497-1.335 35.009 12.777 49.121 18.31 18.31 42.543 23.762 54.126 12.179.728-.728 1.388-1.506 1.983-2.329.594.823 1.255 1.602 1.983 2.329 11.584 11.583 35.817 6.131 54.127-12.179 14.112-14.112 13.705-38.623 12.777-49.121-.265-2.984-2.621-5.34-5.605-5.604z"/><path d="m136.054 211.66c12.459-15.591 13.705-38.623 12.777-49.121-.264-2.984-2.62-5.34-5.604-5.604-10.498-.929-35.009-1.335-49.121 12.777-6.299 6.299-22.023 6.299-28.322 0-14.112-14.112-38.623-13.705-49.121-12.777-2.984.264-5.34 2.62-5.604 5.604-.928 10.498-.242 33.995 12.777 49.121 30.418 35.34 84.482 34.711 112.218 0z"/></g><path d="m285.514 93.98c0 25.894-13.28 46.885-29.662 46.885s-29.662-20.991-29.662-46.885c0-19.957 17.62-37.002 25.699-43.768 2.297-1.923 5.628-1.923 7.925 0 8.081 6.767 25.7 23.811 25.7 43.768z" fill="#fda302"/><g fill="#fdd602"><path d="m312.109 259.057c-18.31 18.31-42.543 23.762-54.127 12.178s-6.131-35.817 12.178-54.126c14.112-14.112 38.623-13.705 49.121-12.777 2.984.264 5.34 2.62 5.604 5.604.929 10.498 1.336 35.01-12.776 49.121z"/><path d="m199.891 259.057c18.31 18.31 42.543 23.762 54.126 12.178 11.584-11.584 6.131-35.817-12.178-54.126-14.112-14.112-38.623-13.705-49.121-12.777-2.984.264-5.34 2.62-5.604 5.604-.928 10.498-1.335 35.01 12.777 49.121z"/><path d="m312.109 163.648c-18.31 18.31-42.543 23.762-54.127 12.178s-6.131-35.817 12.178-54.127c14.112-14.112 38.623-13.705 49.121-12.777 2.984.264 5.34 2.62 5.604 5.604.929 10.498 1.336 35.01-12.776 49.122z"/><path d="m199.891 163.648c18.31 18.31 42.543 23.762 54.126 12.178 11.584-11.584 6.131-35.817-12.178-54.127-14.112-14.112-38.623-13.705-49.121-12.777-2.984.264-5.34 2.62-5.604 5.604-.928 10.498-1.335 35.01 12.777 49.122z"/><path d="m442.726 388.276c-4.268 0-7.726-3.459-7.726-7.726v-61.957c0-4.268 3.459-7.726 7.726-7.726 4.268 0 7.726 3.459 7.726 7.726v61.957c0 4.267-3.459 7.726-7.726 7.726z"/></g><g fill="#fda302"><path d="m506.008 250.883c-10.498-.928-35.009-1.335-49.121 12.777-6.299 6.299-22.023 6.299-28.322 0-14.112-14.112-38.623-13.705-49.121-12.777-2.984.264-5.34 2.62-5.604 5.604-.928 10.497-1.335 35.009 12.777 49.121 18.31 18.31 42.543 23.762 54.126 12.179.728-.728 1.388-1.506 1.983-2.329.594.823 1.255 1.602 1.983 2.329 11.584 11.583 35.817 6.131 54.126-12.179 14.112-14.112 13.705-38.623 12.777-49.121-.264-2.984-2.62-5.34-5.604-5.604z"/><path d="m498.835 211.66c12.898-15.23 13.705-38.623 12.777-49.121-.264-2.984-2.62-5.34-5.604-5.604-10.498-.929-35.009-1.335-49.121 12.777-6.299 6.299-22.023 6.299-28.322 0-14.112-14.112-38.623-13.705-49.121-12.777-2.984.264-5.34 2.62-5.604 5.604-.928 10.498.295 33.549 12.777 49.121 35.538 44.34 91.526 24.434 112.218 0z"/></g><path d="m472.24 93.98c0 25.894-13.28 46.885-29.662 46.885s-29.662-20.991-29.662-46.885c0-19.957 17.62-37.002 25.699-43.768 2.297-1.923 5.628-1.923 7.925 0 8.08 6.767 25.7 23.811 25.7 43.768z" fill="#fda302"/><path d="m498.835 259.057c-18.31 18.31-42.543 23.762-54.127 12.178s-6.131-35.817 12.178-54.126c14.112-14.112 38.623-13.705 49.121-12.777 2.984.264 5.34 2.62 5.604 5.604.929 10.498 1.336 35.01-12.776 49.121z" fill="#fdd602"/><path d="m386.617 259.057c18.31 18.31 42.543 23.762 54.126 12.178 11.584-11.584 6.131-35.817-12.178-54.126-14.112-14.112-38.623-13.705-49.121-12.777-2.984.264-5.34 2.62-5.604 5.604-.928 10.498-1.335 35.01 12.777 49.121z" fill="#fdd602"/><path d="m498.835 163.648c-18.31 18.31-42.543 23.762-54.127 12.178s-6.131-35.817 12.178-54.127c14.112-14.112 38.623-13.705 49.121-12.777 2.984.264 5.34 2.62 5.604 5.604.929 10.498 1.336 35.01-12.776 49.122z" fill="#fdd602"/><path d="m386.617 163.648c18.31 18.31 42.543 23.762 54.126 12.178 11.584-11.584 6.131-35.817-12.178-54.127-14.112-14.112-38.623-13.705-49.121-12.777-2.984.264-5.34 2.62-5.604 5.604-.928 10.498-1.335 35.01 12.777 49.122z" fill="#fdd602"/><path d="m109.459 93.98c0 25.894-13.28 46.885-29.662 46.885s-29.661-20.991-29.661-46.885c0-19.957 17.62-37.002 25.699-43.768 2.297-1.923 5.628-1.923 7.925 0 8.079 6.767 25.699 23.811 25.699 43.768z" fill="#fda302"/><path d="m136.054 259.057c-18.31 18.31-42.543 23.762-54.127 12.178s-6.131-35.817 12.178-54.126c14.112-14.112 38.623-13.705 49.121-12.777 2.984.264 5.34 2.62 5.604 5.604.929 10.498 1.336 35.01-12.776 49.121z" fill="#fdd602"/><path d="m23.836 259.057c18.31 18.31 42.543 23.762 54.126 12.178 11.584-11.584 6.131-35.817-12.178-54.126-14.112-14.112-38.623-13.705-49.121-12.777-2.984.264-5.34 2.62-5.604 5.604-.928 10.498-1.335 35.01 12.777 49.121z" fill="#fdd602"/><path d="m136.054 163.648c-18.31 18.31-42.543 23.762-54.127 12.178s-6.131-35.817 12.178-54.127c14.112-14.112 38.623-13.705 49.121-12.777 2.984.264 5.34 2.62 5.604 5.604.929 10.498 1.336 35.01-12.776 49.122z" fill="#fdd602"/><path d="m23.836 163.648c18.31 18.31 42.543 23.762 54.126 12.178 11.584-11.584 6.131-35.817-12.178-54.127-14.112-14.112-38.623-13.705-49.121-12.777-2.984.264-5.34 2.62-5.604 5.604-.928 10.498-1.335 35.01 12.777 49.122z" fill="#fdd602"/><path d="m498.473 463.231h-484.946c-7.471 0-13.527-6.057-13.527-13.528v-45.683c0-17.648 14.307-31.955 31.955-31.955h448.09c17.648 0 31.955 14.307 31.955 31.955v45.684c0 7.47-6.056 13.527-13.527 13.527z" fill="#80d261"/><path d="m481.032 372.127c.038.646.062 1.296.062 1.952v44.311c0 7.696-6.239 13.935-13.935 13.935h-467.159v16.97c0 7.696 6.239 13.935 13.935 13.935h484.129c7.696 0 13.935-6.239 13.935-13.935v-44.311c.001-17.525-13.695-31.846-30.967-32.857z" fill="#68ca44"/><path d="m145.706 410.878h-29.662c-4.268 0-7.726-3.459-7.726-7.726s3.459-7.726 7.726-7.726h29.662c4.268 0 7.726 3.459 7.726 7.726s-3.458 7.726-7.726 7.726z" fill="#68ca44"/><path d="m266.731 425.374h-29.661c-4.268 0-7.726-3.459-7.726-7.726 0-4.268 3.459-7.726 7.726-7.726h29.661c4.268 0 7.726 3.459 7.726 7.726s-3.459 7.726-7.726 7.726z" fill="#68ca44"/><path d="m395.955 411.763h-29.661c-4.268 0-7.726-3.459-7.726-7.726s3.459-7.726 7.726-7.726h29.661c4.268 0 7.726 3.459 7.726 7.726s-3.458 7.726-7.726 7.726z" fill="#68ca44"/></g></svg>