<svg id="Layer_1" enable-background="new 0 0 497 497" height="512" viewBox="0 0 497 497" width="512" xmlns="http://www.w3.org/2000/svg"><g><circle cx="318.894" cy="306.226" fill="#f2f2f2" r="46.333"/><path d="m318.894 259.892c-7.163 0-13.945 1.627-20 4.529 15.576 7.465 26.333 23.378 26.333 41.804s-10.757 34.338-26.333 41.804c6.055 2.902 12.837 4.529 20 4.529 25.589 0 46.333-20.744 46.333-46.333s-20.744-46.333-46.333-46.333z" fill="#e6e6e6"/><path d="m95.068 351.819c-13.936-20.595-24.189-41.523-31.669-60.344-28.532-71.791-29.952-142.938-21.767-185.583 3.244-16.903 10.284-32.939 19.824-45.154 10.853-13.897 23.844-21.688 38.612-23.156 1.749-.174 3.518-.263 5.258-.263 26.808 0 49.717 21.017 71.872 41.341 11.843 10.865 23.029 21.127 35.06 28.72 21.97 13.867 64.804 25.671 82.207 30.105 4.464 1.137 7.561 5.18 7.522 9.786-.501 58.291 4.797 101.766 4.797 101.766-10.403 2.198-20.334 7.242-28.537 15.18-16.118 15.598-21.319 38.21-15.474 58.345l-.012-.013s-69.106 62.657-156.717 37.231c-4.47-1.298-8.369-4.107-10.976-7.961z" fill="#d82e3d"/><path d="m371.224 439.739c-23.153 15.525-57.907 19.938-84.433 19.938-24.674 0-49.415-4.584-72.56-13.086-24.695-9.071-45.871-21.29-64.018-35.36-7.45-5.777-3.491-17.67 5.933-17.901 73.008-1.791 120.344-46.872 120.771-46.432 18.007 18.587 45.355 22.652 67.457 11.99 0 0 19.831 38.279 30.787 69.189 1.533 4.325-.126 9.106-3.937 11.662z" fill="#d82e3d"/><g><path d="m375.161 428.077c-10.957-30.91-30.787-69.189-30.787-69.189-11.815 5.7-25.128 7.187-37.713 4.501 5.522 10.989 19.803 40.151 28.501 64.688 1.533 4.325-.126 9.106-3.937 11.662-17.427 11.686-41.425 17.074-63.541 19.025 6.355.6 12.734.912 19.108.912 26.526 0 61.28-4.413 84.433-19.938 3.81-2.555 5.469-7.336 3.936-11.661z" fill="#c10a54"/></g><path d="m448.347 358.193c-8.902 20.74-21.654 38.875-37.372 53.856-5.007 4.773-13.216 3.21-16.06-3.096-14.526-32.22-29.698-66.949-29.698-66.949 17.555-22.623 16.263-55.284-4.244-76.45-7.318-7.554-16.759-12.945-26.762-16.054-3.029-31.896-3.388-69.934-3.331-89.829.02-6.947 6.953-11.751 13.467-9.336 42.772 15.854 81.219 49.117 100.528 89.458 18.459 38.563 19.692 80.612 3.472 118.4z" fill="#d82e3d"/><path d="m444.875 239.793c-19.31-40.341-57.756-73.604-100.528-89.458-6.514-2.415-13.448 2.389-13.467 9.336-.003.965-.004 1.985-.005 3.033 31.712 17.944 58.793 45.318 74 77.089 18.459 38.563 19.692 80.612 3.471 118.4-5.451 12.699-12.351 24.416-20.486 35.036 2.324 5.202 4.697 10.495 7.055 15.723 2.843 6.306 11.052 7.869 16.06 3.096 15.718-14.981 28.47-33.116 37.372-53.856 16.22-37.787 14.987-79.836-3.472-118.399z" fill="#c10a54"/><path d="m478.432 223.589c-25.889-53.967-76.047-95.882-134.175-112.124-11.484-3.209-22.981-5.873-34.099-8.448-28.474-6.596-55.369-12.827-77.989-27.104-9.197-5.804-19.183-14.966-29.756-24.665-25.102-23.028-53.553-49.128-92.696-51.046-4.423-.217-8.914-.104-13.346.337-24.951 2.48-47.189 15.379-64.31 37.302-13.102 16.777-22.704 38.453-27.039 61.038-11.704 60.984-2.611 140.043 23.731 206.325 23.973 60.32 73.38 139.875 172.616 176.324 23.923 8.788 48.707 13.863 73.664 15.086 43.958 2.154 86.382-7.698 122.672-28.485 38.18-21.872 67.539-54.813 84.903-95.264 20.535-47.842 19.052-100.856-4.176-149.276zm-157.996 52.427c7.679.376 14.858 3.629 20.214 9.158 11.614 11.988 11.305 31.185-.69 42.793-6.07 5.875-14.063 8.882-22.506 8.469-9.524-.467-18.28-5.358-23.743-13.53-8.154-12.198-6.326-28.218 4.219-38.421 6.07-5.875 14.063-8.883 22.506-8.469zm-225.368 75.803c-13.936-20.595-24.189-41.523-31.669-60.344-28.532-71.791-29.952-142.938-21.767-185.583 3.244-16.903 10.284-32.939 19.824-45.154 10.853-13.897 23.844-21.688 38.612-23.156 1.749-.174 3.518-.263 5.258-.263 26.808 0 49.717 21.017 71.872 41.341 11.843 10.865 23.029 21.127 35.06 28.72 21.97 13.867 64.804 25.671 82.207 30.105 4.464 1.137 7.561 5.18 7.522 9.786-.501 58.291 4.797 101.766 4.797 101.766-10.403 2.198-20.334 7.242-28.537 15.18-16.118 15.598-21.319 38.21-15.474 58.345l-.012-.013s-69.106 62.657-156.717 37.231c-4.47-1.298-8.369-4.107-10.976-7.961zm276.156 87.92c-23.153 15.525-57.907 19.938-84.433 19.938-24.674 0-49.415-4.584-72.56-13.086-24.695-9.071-45.871-21.29-64.018-35.36-7.45-5.777-3.491-17.67 5.933-17.901 73.008-1.791 120.344-46.872 120.771-46.432 18.007 18.587 45.355 22.652 67.457 11.99 0 0 19.831 38.279 30.787 69.189 1.533 4.325-.126 9.106-3.937 11.662zm77.123-81.546c-8.902 20.74-21.654 38.875-37.372 53.856-5.007 4.773-13.216 3.21-16.06-3.096-14.526-32.22-29.698-66.949-29.698-66.949 17.555-22.623 16.263-55.284-4.244-76.45-7.318-7.554-16.759-12.945-26.762-16.054-3.029-31.896-3.388-69.934-3.331-89.829.02-6.947 6.953-11.751 13.467-9.336 42.772 15.854 81.219 49.117 100.528 89.458 18.459 38.563 19.692 80.612 3.472 118.4z" fill="#ffd8d5"/></g></svg>